# xmcd
#
# Track frame offsets: 
#        150
#        25962
#        51894
#        78116
#        99084
#        122788
#        143636
#        165554
#        194687
#        225376
#        252234
#        278623
#
# Disc length: 3971 seconds
#
# Revision: 0
# Processed by: cddbd v1.5.2PL0 Copyright (c) Steve Scherf et al.
# Submitted via: ExactAudioCopy v0.99pb5
#
DISCID=930f810c
DTITLE=Awek - Barber Shop
DYEAR=2000
DGENRE=Blues
TTITLE0=Going Back On The Road
TTITLE1=Life Gives Me To Believe
TTITLE2=Together We'll Synchronize
TTITLE3=Brother, brother
TTITLE4=Shades Of Night
TTITLE5=Work
TTITLE6=You Can't Judge A Book
TTITLE7=Tell Me Who Do You Love
TTITLE8=Play The Game
TTITLE9=Hear Me Talking
TTITLE10=Rollin' On The Highway
TTITLE11=Flamenco Woman
EXTD=
EXTT0=
EXTT1=
EXTT2=
EXTT3=
EXTT4=
EXTT5=
EXTT6=
EXTT7=
EXTT8=
EXTT9=
EXTT10=
EXTT11=
PLAYORDER=
